<svg id="visual" viewBox="0 0 900 450" width="900" height="450" xmlns="http://www.w3.org/2000/svg" xmlns:xlink="http://www.w3.org/1999/xlink" version="1.1"><path d="M0 100L82 100L82 46L164 46L164 73L245 73L245 60L327 60L327 46L409 46L409 46L491 46L491 87L573 87L573 46L655 46L655 87L736 87L736 64L818 64L818 33L900 33L900 46L900 0L900 0L818 0L818 0L736 0L736 0L655 0L655 0L573 0L573 0L491 0L491 0L409 0L409 0L327 0L327 0L245 0L245 0L164 0L164 0L82 0L82 0L0 0Z" fill="#234e52"></path><path d="M0 154L82 154L82 105L164 105L164 145L245 145L245 150L327 150L327 118L409 118L409 127L491 127L491 190L573 190L573 109L655 109L655 190L736 190L736 105L818 105L818 141L900 141L900 127L900 44L900 31L818 31L818 62L736 62L736 85L655 85L655 44L573 44L573 85L491 85L491 44L409 44L409 44L327 44L327 58L245 58L245 71L164 71L164 44L82 44L82 98L0 98Z" fill="#275f63"></path><path d="M0 244L82 244L82 267L164 267L164 285L245 285L245 330L327 330L327 271L409 271L409 298L491 298L491 262L573 262L573 325L655 325L655 249L736 249L736 199L818 199L818 217L900 217L900 226L900 125L900 139L818 139L818 103L736 103L736 188L655 188L655 107L573 107L573 188L491 188L491 125L409 125L409 116L327 116L327 148L245 148L245 143L164 143L164 103L82 103L82 152L0 152Z" fill="#2a7174"></path><path d="M0 271L82 271L82 334L164 334L164 361L245 361L245 366L327 366L327 339L409 339L409 352L491 352L491 316L573 316L573 379L655 379L655 321L736 321L736 253L818 253L818 253L900 253L900 276L900 224L900 215L818 215L818 197L736 197L736 247L655 247L655 323L573 323L573 260L491 260L491 296L409 296L409 269L327 269L327 328L245 328L245 283L164 283L164 265L82 265L82 242L0 242Z" fill="#2d8485"></path><path d="M0 451L82 451L82 451L164 451L164 451L245 451L245 451L327 451L327 451L409 451L409 451L491 451L491 451L573 451L573 451L655 451L655 451L736 451L736 451L818 451L818 451L900 451L900 451L900 274L900 251L818 251L818 251L736 251L736 319L655 319L655 377L573 377L573 314L491 314L491 350L409 350L409 337L327 337L327 364L245 364L245 359L164 359L164 332L82 332L82 269L0 269Z" fill="#319795"></path></svg>